<svg width="0" height="0"><symbol xmlns="http://www.w3.org/2000/svg" viewBox="0 0 612.01 612.01" id="search"><path d="M606.209 578.714L448.198 423.228C489.576 378.272 515 318.817 515 253.393 514.98 113.439 399.704 0 257.493 0S.006 113.439.006 253.393s115.276 253.393 257.487 253.393c61.445 0 117.801-21.253 162.068-56.586l158.624 156.099c7.729 7.614 20.277 7.614 28.006 0a19.291 19.291 0 00.018-27.585zM257.493 467.8c-120.326 0-217.869-95.993-217.869-214.407S137.167 38.986 257.493 38.986c120.327 0 217.869 95.993 217.869 214.407S377.82 467.8 257.493 467.8z" fill="currentColor"/></symbol><symbol xmlns="http://www.w3.org/2000/svg" viewBox="0 0 60 18" id="arrow"><path d="M51.1 0l-2.7 2.7 4.4 4.4H0v3.8h52.8l-4.4 4.4 2.7 2.7L60 9z" fill="currentColor"/></symbol><symbol xmlns="http://www.w3.org/2000/svg" viewBox="0 0 490.688 490.688" id="down-arrow"><path d="M472.328 120.529L245.213 347.665 18.098 120.529c-4.237-4.093-10.99-3.975-15.083.262-3.992 4.134-3.992 10.687 0 14.82l234.667 234.667c4.165 4.164 10.917 4.164 15.083 0l234.667-234.667c4.237-4.093 4.354-10.845.262-15.083-4.093-4.237-10.845-4.354-15.083-.262-.089.086-.176.173-.262.262l-.021.001z" fill="currentColors"/><path d="M245.213 373.415a10.663 10.663 0 01-7.552-3.115L2.994 135.633c-4.093-4.237-3.975-10.99.262-15.083 4.134-3.992 10.687-3.992 14.82 0l227.136 227.115 227.115-227.136c4.093-4.237 10.845-4.354 15.083-.262 4.237 4.093 4.354 10.845.262 15.083-.086.089-.173.176-.262.262L252.744 370.279a10.672 10.672 0 01-7.531 3.136z" fill="currentColor"/></symbol></svg>